<svg width="845" height="145" xmlns="http://www.w3.org/2000/svg">
<style>
        .month { font-size: 10px; fill: #767676; }
        .day { font-size: 9px; fill: #767676; }
        .cell { stroke: #e1e4e8; stroke-width: 1; }
        .cell-profit { fill: #40c463; }
        .cell-loss { fill: #f85149; }
        .cell-breakeven { fill: #ffd33d; }
        .cell-empty { fill: #ebedf0; }
    </style>
<text x="50.0" y="12" class="month">Jan</text>
<text x="117.5" y="12" class="month">Feb</text>
<text x="185.0" y="12" class="month">Mar</text>
<text x="252.5" y="12" class="month">Apr</text>
<text x="320.0" y="12" class="month">May</text>
<text x="387.5" y="12" class="month">Jun</text>
<text x="455.0" y="12" class="month">Jul</text>
<text x="522.5" y="12" class="month">Aug</text>
<text x="590.0" y="12" class="month">Sep</text>
<text x="657.5" y="12" class="month">Oct</text>
<text x="725.0" y="12" class="month">Nov</text>
<text x="792.5" y="12" class="month">Dec</text>
<text x="5" y="44" class="day">Mon</text>
<text x="5" y="74" class="day">Wed</text>
<text x="5" y="104" class="day">Fri</text>
<rect x="50" y="50" width="12" height="12" class="cell cell-empty" rx="2" ry="2"><title>2025-01-01: No data</title></rect>
<rect x="50" y="65" width="12" height="12" class="cell cell-empty" rx="2" ry="2"><title>2025-01-02: No data</title></rect>
<rect x="50" y="80" width="12" height="12" class="cell cell-empty" rx="2" ry="2"><title>2025-01-03: No data</title></rect>
<rect x="50" y="95" width="12" height="12" class="cell cell-empty" rx="2" ry="2"><title>2025-01-04: No data</title></rect>
<rect x="50" y="110" width="12" height="12" class="cell cell-empty" rx="2" ry="2"><title>2025-01-05: No data</title></rect>
<rect x="65" y="20" width="12" height="12" class="cell cell-breakeven" rx="2" ry="2"><title>2025-01-06: $0.00 (1 trades)</title></rect>
<rect x="65" y="35" width="12" height="12" class="cell cell-empty" rx="2" ry="2"><title>2025-01-07: No data</title></rect>
<rect x="65" y="50" width="12" height="12" class="cell cell-profit" rx="2" ry="2"><title>2025-01-08: $272.81 (7 trades)</title></rect>
<rect x="65" y="65" width="12" height="12" class="cell cell-empty" rx="2" ry="2"><title>2025-01-09: No data</title></rect>
<rect x="65" y="80" width="12" height="12" class="cell cell-empty" rx="2" ry="2"><title>2025-01-10: No data</title></rect>
<rect x="65" y="95" width="12" height="12" class="cell cell-empty" rx="2" ry="2"><title>2025-01-11: No data</title></rect>
<rect x="65" y="110" width="12" height="12" class="cell cell-empty" rx="2" ry="2"><title>2025-01-12: No data</title></rect>
<rect x="80" y="20" width="12" height="12" class="cell cell-empty" rx="2" ry="2"><title>2025-01-13: No data</title></rect>
<rect x="80" y="35" width="12" height="12" class="cell cell-empty" rx="2" ry="2"><title>2025-01-14: No data</title></rect>
<rect x="80" y="50" width="12" height="12" class="cell cell-breakeven" rx="2" ry="2"><title>2025-01-15: $0.00 (5 trades)</title></rect>
<rect x="80" y="65" width="12" height="12" class="cell cell-empty" rx="2" ry="2"><title>2025-01-16: No data</title></rect>
<rect x="80" y="80" width="12" height="12" class="cell cell-loss" rx="2" ry="2"><title>2025-01-17: $-141.22 (1 trades)</title></rect>
<rect x="80" y="95" width="12" height="12" class="cell cell-empty" rx="2" ry="2"><title>2025-01-18: No data</title></rect>
<rect x="80" y="110" width="12" height="12" class="cell cell-empty" rx="2" ry="2"><title>2025-01-19: No data</title></rect>
<rect x="95" y="20" width="12" height="12" class="cell cell-empty" rx="2" ry="2"><title>2025-01-20: No data</title></rect>
<rect x="95" y="35" width="12" height="12" class="cell cell-empty" rx="2" ry="2"><title>2025-01-21: No data</title></rect>
<rect x="95" y="50" width="12" height="12" class="cell cell-empty" rx="2" ry="2"><title>2025-01-22: No data</title></rect>
<rect x="95" y="65" width="12" height="12" class="cell cell-empty" rx="2" ry="2"><title>2025-01-23: No data</title></rect>
<rect x="95" y="80" width="12" height="12" class="cell cell-loss" rx="2" ry="2"><title>2025-01-24: $-152.30 (2 trades)</title></rect>
<rect x="95" y="95" width="12" height="12" class="cell cell-empty" rx="2" ry="2"><title>2025-01-25: No data</title></rect>
<rect x="95" y="110" width="12" height="12" class="cell cell-empty" rx="2" ry="2"><title>2025-01-26: No data</title></rect>
<rect x="110" y="20" width="12" height="12" class="cell cell-empty" rx="2" ry="2"><title>2025-01-27: No data</title></rect>
<rect x="110" y="35" width="12" height="12" class="cell cell-empty" rx="2" ry="2"><title>2025-01-28: No data</title></rect>
<rect x="110" y="50" width="12" height="12" class="cell cell-profit" rx="2" ry="2"><title>2025-01-29: $168.04 (2 trades)</title></rect>
<rect x="110" y="65" width="12" height="12" class="cell cell-loss" rx="2" ry="2"><title>2025-01-30: $-132.40 (1 trades)</title></rect>
<rect x="110" y="80" width="12" height="12" class="cell cell-empty" rx="2" ry="2"><title>2025-01-31: No data</title></rect>
<rect x="110" y="95" width="12" height="12" class="cell cell-empty" rx="2" ry="2"><title>2025-02-01: No data</title></rect>
<rect x="110" y="110" width="12" height="12" class="cell cell-empty" rx="2" ry="2"><title>2025-02-02: No data</title></rect>
<rect x="125" y="20" width="12" height="12" class="cell cell-empty" rx="2" ry="2"><title>2025-02-03: No data</title></rect>
<rect x="125" y="35" width="12" height="12" class="cell cell-loss" rx="2" ry="2"><title>2025-02-04: $-149.99 (6 trades)</title></rect>
<rect x="125" y="50" width="12" height="12" class="cell cell-profit" rx="2" ry="2"><title>2025-02-05: $429.24 (8 trades)</title></rect>
<rect x="125" y="65" width="12" height="12" class="cell cell-breakeven" rx="2" ry="2"><title>2025-02-06: $0.00 (5 trades)</title></rect>
<rect x="125" y="80" width="12" height="12" class="cell cell-empty" rx="2" ry="2"><title>2025-02-07: No data</title></rect>
<rect x="125" y="95" width="12" height="12" class="cell cell-empty" rx="2" ry="2"><title>2025-02-08: No data</title></rect>
<rect x="125" y="110" width="12" height="12" class="cell cell-empty" rx="2" ry="2"><title>2025-02-09: No data</title></rect>
<rect x="140" y="20" width="12" height="12" class="cell cell-empty" rx="2" ry="2"><title>2025-02-10: No data</title></rect>
<rect x="140" y="35" width="12" height="12" class="cell cell-empty" rx="2" ry="2"><title>2025-02-11: No data</title></rect>
<rect x="140" y="50" width="12" height="12" class="cell cell-empty" rx="2" ry="2"><title>2025-02-12: No data</title></rect>
<rect x="140" y="65" width="12" height="12" class="cell cell-breakeven" rx="2" ry="2"><title>2025-02-13: $0.00 (2 trades)</title></rect>
<rect x="140" y="80" width="12" height="12" class="cell cell-profit" rx="2" ry="2"><title>2025-02-14: $302.83 (6 trades)</title></rect>
<rect x="140" y="95" width="12" height="12" class="cell cell-empty" rx="2" ry="2"><title>2025-02-15: No data</title></rect>
<rect x="140" y="110" width="12" height="12" class="cell cell-empty" rx="2" ry="2"><title>2025-02-16: No data</title></rect>
<rect x="155" y="20" width="12" height="12" class="cell cell-empty" rx="2" ry="2"><title>2025-02-17: No data</title></rect>
<rect x="155" y="35" width="12" height="12" class="cell cell-breakeven" rx="2" ry="2"><title>2025-02-18: $0.00 (3 trades)</title></rect>
<rect x="155" y="50" width="12" height="12" class="cell cell-empty" rx="2" ry="2"><title>2025-02-19: No data</title></rect>
<rect x="155" y="65" width="12" height="12" class="cell cell-profit" rx="2" ry="2"><title>2025-02-20: $174.78 (2 trades)</title></rect>
<rect x="155" y="80" width="12" height="12" class="cell cell-empty" rx="2" ry="2"><title>2025-02-21: No data</title></rect>
<rect x="155" y="95" width="12" height="12" class="cell cell-empty" rx="2" ry="2"><title>2025-02-22: No data</title></rect>
<rect x="155" y="110" width="12" height="12" class="cell cell-empty" rx="2" ry="2"><title>2025-02-23: No data</title></rect>
<rect x="170" y="20" width="12" height="12" class="cell cell-loss" rx="2" ry="2"><title>2025-02-24: $-1.00 (1 trades)</title></rect>
<rect x="170" y="35" width="12" height="12" class="cell cell-empty" rx="2" ry="2"><title>2025-02-25: No data</title></rect>
<rect x="170" y="50" width="12" height="12" class="cell cell-empty" rx="2" ry="2"><title>2025-02-26: No data</title></rect>
<rect x="170" y="65" width="12" height="12" class="cell cell-empty" rx="2" ry="2"><title>2025-02-27: No data</title></rect>
<rect x="170" y="80" width="12" height="12" class="cell cell-empty" rx="2" ry="2"><title>2025-02-28: No data</title></rect>
<rect x="170" y="95" width="12" height="12" class="cell cell-empty" rx="2" ry="2"><title>2025-03-01: No data</title></rect>
<rect x="170" y="110" width="12" height="12" class="cell cell-empty" rx="2" ry="2"><title>2025-03-02: No data</title></rect>
<rect x="185" y="20" width="12" height="12" class="cell cell-empty" rx="2" ry="2"><title>2025-03-03: No data</title></rect>
<rect x="185" y="35" width="12" height="12" class="cell cell-loss" rx="2" ry="2"><title>2025-03-04: $-293.84 (4 trades)</title></rect>
<rect x="185" y="50" width="12" height="12" class="cell cell-empty" rx="2" ry="2"><title>2025-03-05: No data</title></rect>
<rect x="185" y="65" width="12" height="12" class="cell cell-empty" rx="2" ry="2"><title>2025-03-06: No data</title></rect>
<rect x="185" y="80" width="12" height="12" class="cell cell-loss" rx="2" ry="2"><title>2025-03-07: $-161.83 (1 trades)</title></rect>
<rect x="185" y="95" width="12" height="12" class="cell cell-empty" rx="2" ry="2"><title>2025-03-08: No data</title></rect>
<rect x="185" y="110" width="12" height="12" class="cell cell-empty" rx="2" ry="2"><title>2025-03-09: No data</title></rect>
<rect x="200" y="20" width="12" height="12" class="cell cell-empty" rx="2" ry="2"><title>2025-03-10: No data</title></rect>
<rect x="200" y="35" width="12" height="12" class="cell cell-empty" rx="2" ry="2"><title>2025-03-11: No data</title></rect>
<rect x="200" y="50" width="12" height="12" class="cell cell-empty" rx="2" ry="2"><title>2025-03-12: No data</title></rect>
<rect x="200" y="65" width="12" height="12" class="cell cell-profit" rx="2" ry="2"><title>2025-03-13: $215.00 (1 trades)</title></rect>
<rect x="200" y="80" width="12" height="12" class="cell cell-empty" rx="2" ry="2"><title>2025-03-14: No data</title></rect>
<rect x="200" y="95" width="12" height="12" class="cell cell-empty" rx="2" ry="2"><title>2025-03-15: No data</title></rect>
<rect x="200" y="110" width="12" height="12" class="cell cell-empty" rx="2" ry="2"><title>2025-03-16: No data</title></rect>
<rect x="215" y="20" width="12" height="12" class="cell cell-empty" rx="2" ry="2"><title>2025-03-17: No data</title></rect>
<rect x="215" y="35" width="12" height="12" class="cell cell-empty" rx="2" ry="2"><title>2025-03-18: No data</title></rect>
<rect x="215" y="50" width="12" height="12" class="cell cell-empty" rx="2" ry="2"><title>2025-03-19: No data</title></rect>
<rect x="215" y="65" width="12" height="12" class="cell cell-empty" rx="2" ry="2"><title>2025-03-20: No data</title></rect>
<rect x="215" y="80" width="12" height="12" class="cell cell-empty" rx="2" ry="2"><title>2025-03-21: No data</title></rect>
<rect x="215" y="95" width="12" height="12" class="cell cell-empty" rx="2" ry="2"><title>2025-03-22: No data</title></rect>
<rect x="215" y="110" width="12" height="12" class="cell cell-empty" rx="2" ry="2"><title>2025-03-23: No data</title></rect>
<rect x="230" y="20" width="12" height="12" class="cell cell-breakeven" rx="2" ry="2"><title>2025-03-24: $0.00 (1 trades)</title></rect>
<rect x="230" y="35" width="12" height="12" class="cell cell-empty" rx="2" ry="2"><title>2025-03-25: No data</title></rect>
<rect x="230" y="50" width="12" height="12" class="cell cell-empty" rx="2" ry="2"><title>2025-03-26: No data</title></rect>
<rect x="230" y="65" width="12" height="12" class="cell cell-empty" rx="2" ry="2"><title>2025-03-27: No data</title></rect>
<rect x="230" y="80" width="12" height="12" class="cell cell-empty" rx="2" ry="2"><title>2025-03-28: No data</title></rect>
<rect x="230" y="95" width="12" height="12" class="cell cell-empty" rx="2" ry="2"><title>2025-03-29: No data</title></rect>
<rect x="230" y="110" width="12" height="12" class="cell cell-empty" rx="2" ry="2"><title>2025-03-30: No data</title></rect>
<rect x="245" y="20" width="12" height="12" class="cell cell-empty" rx="2" ry="2"><title>2025-03-31: No data</title></rect>
<rect x="245" y="35" width="12" height="12" class="cell cell-empty" rx="2" ry="2"><title>2025-04-01: No data</title></rect>
<rect x="245" y="50" width="12" height="12" class="cell cell-empty" rx="2" ry="2"><title>2025-04-02: No data</title></rect>
<rect x="245" y="65" width="12" height="12" class="cell cell-loss" rx="2" ry="2"><title>2025-04-03: $-143.43 (3 trades)</title></rect>
<rect x="245" y="80" width="12" height="12" class="cell cell-loss" rx="2" ry="2"><title>2025-04-04: $-325.25 (1 trades)</title></rect>
<rect x="245" y="95" width="12" height="12" class="cell cell-empty" rx="2" ry="2"><title>2025-04-05: No data</title></rect>
<rect x="245" y="110" width="12" height="12" class="cell cell-empty" rx="2" ry="2"><title>2025-04-06: No data</title></rect>
<rect x="260" y="20" width="12" height="12" class="cell cell-breakeven" rx="2" ry="2"><title>2025-04-07: $0.00 (4 trades)</title></rect>
<rect x="260" y="35" width="12" height="12" class="cell cell-breakeven" rx="2" ry="2"><title>2025-04-08: $0.00 (1 trades)</title></rect>
<rect x="260" y="50" width="12" height="12" class="cell cell-empty" rx="2" ry="2"><title>2025-04-09: No data</title></rect>
<rect x="260" y="65" width="12" height="12" class="cell cell-empty" rx="2" ry="2"><title>2025-04-10: No data</title></rect>
<rect x="260" y="80" width="12" height="12" class="cell cell-empty" rx="2" ry="2"><title>2025-04-11: No data</title></rect>
<rect x="260" y="95" width="12" height="12" class="cell cell-empty" rx="2" ry="2"><title>2025-04-12: No data</title></rect>
<rect x="260" y="110" width="12" height="12" class="cell cell-empty" rx="2" ry="2"><title>2025-04-13: No data</title></rect>
<rect x="275" y="20" width="12" height="12" class="cell cell-empty" rx="2" ry="2"><title>2025-04-14: No data</title></rect>
<rect x="275" y="35" width="12" height="12" class="cell cell-empty" rx="2" ry="2"><title>2025-04-15: No data</title></rect>
<rect x="275" y="50" width="12" height="12" class="cell cell-empty" rx="2" ry="2"><title>2025-04-16: No data</title></rect>
<rect x="275" y="65" width="12" height="12" class="cell cell-empty" rx="2" ry="2"><title>2025-04-17: No data</title></rect>
<rect x="275" y="80" width="12" height="12" class="cell cell-empty" rx="2" ry="2"><title>2025-04-18: No data</title></rect>
<rect x="275" y="95" width="12" height="12" class="cell cell-empty" rx="2" ry="2"><title>2025-04-19: No data</title></rect>
<rect x="275" y="110" width="12" height="12" class="cell cell-empty" rx="2" ry="2"><title>2025-04-20: No data</title></rect>
<rect x="290" y="20" width="12" height="12" class="cell cell-empty" rx="2" ry="2"><title>2025-04-21: No data</title></rect>
<rect x="290" y="35" width="12" height="12" class="cell cell-empty" rx="2" ry="2"><title>2025-04-22: No data</title></rect>
<rect x="290" y="50" width="12" height="12" class="cell cell-empty" rx="2" ry="2"><title>2025-04-23: No data</title></rect>
<rect x="290" y="65" width="12" height="12" class="cell cell-empty" rx="2" ry="2"><title>2025-04-24: No data</title></rect>
<rect x="290" y="80" width="12" height="12" class="cell cell-empty" rx="2" ry="2"><title>2025-04-25: No data</title></rect>
<rect x="290" y="95" width="12" height="12" class="cell cell-empty" rx="2" ry="2"><title>2025-04-26: No data</title></rect>
<rect x="290" y="110" width="12" height="12" class="cell cell-empty" rx="2" ry="2"><title>2025-04-27: No data</title></rect>
<rect x="305" y="20" width="12" height="12" class="cell cell-empty" rx="2" ry="2"><title>2025-04-28: No data</title></rect>
<rect x="305" y="35" width="12" height="12" class="cell cell-empty" rx="2" ry="2"><title>2025-04-29: No data</title></rect>
<rect x="305" y="50" width="12" height="12" class="cell cell-empty" rx="2" ry="2"><title>2025-04-30: No data</title></rect>
<rect x="305" y="65" width="12" height="12" class="cell cell-empty" rx="2" ry="2"><title>2025-05-01: No data</title></rect>
<rect x="305" y="80" width="12" height="12" class="cell cell-empty" rx="2" ry="2"><title>2025-05-02: No data</title></rect>
<rect x="305" y="95" width="12" height="12" class="cell cell-empty" rx="2" ry="2"><title>2025-05-03: No data</title></rect>
<rect x="305" y="110" width="12" height="12" class="cell cell-empty" rx="2" ry="2"><title>2025-05-04: No data</title></rect>
<rect x="320" y="20" width="12" height="12" class="cell cell-profit" rx="2" ry="2"><title>2025-05-05: $89.50 (2 trades)</title></rect>
<rect x="320" y="35" width="12" height="12" class="cell cell-profit" rx="2" ry="2"><title>2025-05-06: $41.50 (2 trades)</title></rect>
<rect x="320" y="50" width="12" height="12" class="cell cell-empty" rx="2" ry="2"><title>2025-05-07: No data</title></rect>
<rect x="320" y="65" width="12" height="12" class="cell cell-profit" rx="2" ry="2"><title>2025-05-08: $980.39 (11 trades)</title></rect>
<rect x="320" y="80" width="12" height="12" class="cell cell-empty" rx="2" ry="2"><title>2025-05-09: No data</title></rect>
<rect x="320" y="95" width="12" height="12" class="cell cell-empty" rx="2" ry="2"><title>2025-05-10: No data</title></rect>
<rect x="320" y="110" width="12" height="12" class="cell cell-empty" rx="2" ry="2"><title>2025-05-11: No data</title></rect>
<rect x="335" y="20" width="12" height="12" class="cell cell-profit" rx="2" ry="2"><title>2025-05-12: $330.31 (4 trades)</title></rect>
<rect x="335" y="35" width="12" height="12" class="cell cell-empty" rx="2" ry="2"><title>2025-05-13: No data</title></rect>
<rect x="335" y="50" width="12" height="12" class="cell cell-empty" rx="2" ry="2"><title>2025-05-14: No data</title></rect>
<rect x="335" y="65" width="12" height="12" class="cell cell-empty" rx="2" ry="2"><title>2025-05-15: No data</title></rect>
<rect x="335" y="80" width="12" height="12" class="cell cell-empty" rx="2" ry="2"><title>2025-05-16: No data</title></rect>
<rect x="335" y="95" width="12" height="12" class="cell cell-empty" rx="2" ry="2"><title>2025-05-17: No data</title></rect>
<rect x="335" y="110" width="12" height="12" class="cell cell-empty" rx="2" ry="2"><title>2025-05-18: No data</title></rect>
<rect x="350" y="20" width="12" height="12" class="cell cell-empty" rx="2" ry="2"><title>2025-05-19: No data</title></rect>
<rect x="350" y="35" width="12" height="12" class="cell cell-profit" rx="2" ry="2"><title>2025-05-20: $667.21 (2 trades)</title></rect>
<rect x="350" y="50" width="12" height="12" class="cell cell-empty" rx="2" ry="2"><title>2025-05-21: No data</title></rect>
<rect x="350" y="65" width="12" height="12" class="cell cell-empty" rx="2" ry="2"><title>2025-05-22: No data</title></rect>
<rect x="350" y="80" width="12" height="12" class="cell cell-empty" rx="2" ry="2"><title>2025-05-23: No data</title></rect>
<rect x="350" y="95" width="12" height="12" class="cell cell-empty" rx="2" ry="2"><title>2025-05-24: No data</title></rect>
<rect x="350" y="110" width="12" height="12" class="cell cell-empty" rx="2" ry="2"><title>2025-05-25: No data</title></rect>
<rect x="365" y="20" width="12" height="12" class="cell cell-empty" rx="2" ry="2"><title>2025-05-26: No data</title></rect>
<rect x="365" y="35" width="12" height="12" class="cell cell-empty" rx="2" ry="2"><title>2025-05-27: No data</title></rect>
<rect x="365" y="50" width="12" height="12" class="cell cell-empty" rx="2" ry="2"><title>2025-05-28: No data</title></rect>
<rect x="365" y="65" width="12" height="12" class="cell cell-profit" rx="2" ry="2"><title>2025-05-29: $1206.20 (15 trades)</title></rect>
<rect x="365" y="80" width="12" height="12" class="cell cell-profit" rx="2" ry="2"><title>2025-05-30: $67.52 (2 trades)</title></rect>
<rect x="365" y="95" width="12" height="12" class="cell cell-empty" rx="2" ry="2"><title>2025-05-31: No data</title></rect>
<rect x="365" y="110" width="12" height="12" class="cell cell-empty" rx="2" ry="2"><title>2025-06-01: No data</title></rect>
<rect x="380" y="20" width="12" height="12" class="cell cell-empty" rx="2" ry="2"><title>2025-06-02: No data</title></rect>
<rect x="380" y="35" width="12" height="12" class="cell cell-empty" rx="2" ry="2"><title>2025-06-03: No data</title></rect>
<rect x="380" y="50" width="12" height="12" class="cell cell-empty" rx="2" ry="2"><title>2025-06-04: No data</title></rect>
<rect x="380" y="65" width="12" height="12" class="cell cell-empty" rx="2" ry="2"><title>2025-06-05: No data</title></rect>
<rect x="380" y="80" width="12" height="12" class="cell cell-empty" rx="2" ry="2"><title>2025-06-06: No data</title></rect>
<rect x="380" y="95" width="12" height="12" class="cell cell-empty" rx="2" ry="2"><title>2025-06-07: No data</title></rect>
<rect x="380" y="110" width="12" height="12" class="cell cell-empty" rx="2" ry="2"><title>2025-06-08: No data</title></rect>
<rect x="395" y="20" width="12" height="12" class="cell cell-profit" rx="2" ry="2"><title>2025-06-09: $59.02 (2 trades)</title></rect>
<rect x="395" y="35" width="12" height="12" class="cell cell-profit" rx="2" ry="2"><title>2025-06-10: $124.30 (4 trades)</title></rect>
<rect x="395" y="50" width="12" height="12" class="cell cell-empty" rx="2" ry="2"><title>2025-06-11: No data</title></rect>
<rect x="395" y="65" width="12" height="12" class="cell cell-empty" rx="2" ry="2"><title>2025-06-12: No data</title></rect>
<rect x="395" y="80" width="12" height="12" class="cell cell-profit" rx="2" ry="2"><title>2025-06-13: $37.94 (2 trades)</title></rect>
<rect x="395" y="95" width="12" height="12" class="cell cell-empty" rx="2" ry="2"><title>2025-06-14: No data</title></rect>
<rect x="395" y="110" width="12" height="12" class="cell cell-empty" rx="2" ry="2"><title>2025-06-15: No data</title></rect>
<rect x="410" y="20" width="12" height="12" class="cell cell-profit" rx="2" ry="2"><title>2025-06-16: $63.54 (4 trades)</title></rect>
<rect x="410" y="35" width="12" height="12" class="cell cell-empty" rx="2" ry="2"><title>2025-06-17: No data</title></rect>
<rect x="410" y="50" width="12" height="12" class="cell cell-empty" rx="2" ry="2"><title>2025-06-18: No data</title></rect>
<rect x="410" y="65" width="12" height="12" class="cell cell-empty" rx="2" ry="2"><title>2025-06-19: No data</title></rect>
<rect x="410" y="80" width="12" height="12" class="cell cell-loss" rx="2" ry="2"><title>2025-06-20: $-181.96 (4 trades)</title></rect>
<rect x="410" y="95" width="12" height="12" class="cell cell-empty" rx="2" ry="2"><title>2025-06-21: No data</title></rect>
<rect x="410" y="110" width="12" height="12" class="cell cell-empty" rx="2" ry="2"><title>2025-06-22: No data</title></rect>
<rect x="425" y="20" width="12" height="12" class="cell cell-empty" rx="2" ry="2"><title>2025-06-23: No data</title></rect>
<rect x="425" y="35" width="12" height="12" class="cell cell-loss" rx="2" ry="2"><title>2025-06-24: $-141.71 (8 trades)</title></rect>
<rect x="425" y="50" width="12" height="12" class="cell cell-loss" rx="2" ry="2"><title>2025-06-25: $-49.92 (4 trades)</title></rect>
<rect x="425" y="65" width="12" height="12" class="cell cell-profit" rx="2" ry="2"><title>2025-06-26: $29.40 (24 trades)</title></rect>
<rect x="425" y="80" width="12" height="12" class="cell cell-loss" rx="2" ry="2"><title>2025-06-27: $-64.78 (16 trades)</title></rect>
<rect x="425" y="95" width="12" height="12" class="cell cell-empty" rx="2" ry="2"><title>2025-06-28: No data</title></rect>
<rect x="425" y="110" width="12" height="12" class="cell cell-empty" rx="2" ry="2"><title>2025-06-29: No data</title></rect>
<rect x="440" y="20" width="12" height="12" class="cell cell-profit" rx="2" ry="2"><title>2025-06-30: $54.35 (19 trades)</title></rect>
<rect x="440" y="35" width="12" height="12" class="cell cell-loss" rx="2" ry="2"><title>2025-07-01: $-12.74 (22 trades)</title></rect>
<rect x="440" y="50" width="12" height="12" class="cell cell-loss" rx="2" ry="2"><title>2025-07-02: $-22.45 (28 trades)</title></rect>
<rect x="440" y="65" width="12" height="12" class="cell cell-loss" rx="2" ry="2"><title>2025-07-03: $-3.71 (24 trades)</title></rect>
<rect x="440" y="80" width="12" height="12" class="cell cell-empty" rx="2" ry="2"><title>2025-07-04: No data</title></rect>
<rect x="440" y="95" width="12" height="12" class="cell cell-empty" rx="2" ry="2"><title>2025-07-05: No data</title></rect>
<rect x="440" y="110" width="12" height="12" class="cell cell-empty" rx="2" ry="2"><title>2025-07-06: No data</title></rect>
<rect x="455" y="20" width="12" height="12" class="cell cell-loss" rx="2" ry="2"><title>2025-07-07: $-101.23 (43 trades)</title></rect>
<rect x="455" y="35" width="12" height="12" class="cell cell-loss" rx="2" ry="2"><title>2025-07-08: $-37.58 (41 trades)</title></rect>
<rect x="455" y="50" width="12" height="12" class="cell cell-loss" rx="2" ry="2"><title>2025-07-09: $-561.10 (38 trades)</title></rect>
<rect x="455" y="65" width="12" height="12" class="cell cell-loss" rx="2" ry="2"><title>2025-07-10: $-55.35 (23 trades)</title></rect>
<rect x="455" y="80" width="12" height="12" class="cell cell-loss" rx="2" ry="2"><title>2025-07-11: $-49.25 (40 trades)</title></rect>
<rect x="455" y="95" width="12" height="12" class="cell cell-empty" rx="2" ry="2"><title>2025-07-12: No data</title></rect>
<rect x="455" y="110" width="12" height="12" class="cell cell-empty" rx="2" ry="2"><title>2025-07-13: No data</title></rect>
<rect x="470" y="20" width="12" height="12" class="cell cell-profit" rx="2" ry="2"><title>2025-07-14: $463.70 (34 trades)</title></rect>
<rect x="470" y="35" width="12" height="12" class="cell cell-loss" rx="2" ry="2"><title>2025-07-15: $-31.61 (24 trades)</title></rect>
<rect x="470" y="50" width="12" height="12" class="cell cell-profit" rx="2" ry="2"><title>2025-07-16: $85.54 (8 trades)</title></rect>
<rect x="470" y="65" width="12" height="12" class="cell cell-loss" rx="2" ry="2"><title>2025-07-17: $-5.00 (1 trades)</title></rect>
<rect x="470" y="80" width="12" height="12" class="cell cell-profit" rx="2" ry="2"><title>2025-07-18: $323.30 (8 trades)</title></rect>
<rect x="470" y="95" width="12" height="12" class="cell cell-empty" rx="2" ry="2"><title>2025-07-19: No data</title></rect>
<rect x="470" y="110" width="12" height="12" class="cell cell-empty" rx="2" ry="2"><title>2025-07-20: No data</title></rect>
<rect x="485" y="20" width="12" height="12" class="cell cell-profit" rx="2" ry="2"><title>2025-07-21: $225.24 (23 trades)</title></rect>
<rect x="485" y="35" width="12" height="12" class="cell cell-loss" rx="2" ry="2"><title>2025-07-22: $-40.15 (26 trades)</title></rect>
<rect x="485" y="50" width="12" height="12" class="cell cell-loss" rx="2" ry="2"><title>2025-07-23: $-28.45 (28 trades)</title></rect>
<rect x="485" y="65" width="12" height="12" class="cell cell-loss" rx="2" ry="2"><title>2025-07-24: $-91.25 (47 trades)</title></rect>
<rect x="485" y="80" width="12" height="12" class="cell cell-loss" rx="2" ry="2"><title>2025-07-25: $-23.27 (14 trades)</title></rect>
<rect x="485" y="95" width="12" height="12" class="cell cell-empty" rx="2" ry="2"><title>2025-07-26: No data</title></rect>
<rect x="485" y="110" width="12" height="12" class="cell cell-empty" rx="2" ry="2"><title>2025-07-27: $0.00 (0 trades)</title></rect>
<rect x="500" y="20" width="12" height="12" class="cell cell-loss" rx="2" ry="2"><title>2025-07-28: $-157.78 (40 trades)</title></rect>
<rect x="500" y="35" width="12" height="12" class="cell cell-loss" rx="2" ry="2"><title>2025-07-29: $-427.70 (15 trades)</title></rect>
<rect x="500" y="50" width="12" height="12" class="cell cell-loss" rx="2" ry="2"><title>2025-07-30: $-25.00 (6 trades)</title></rect>
<rect x="500" y="65" width="12" height="12" class="cell cell-empty" rx="2" ry="2"><title>2025-07-31: $0.00 (0 trades)</title></rect>
<rect x="500" y="80" width="12" height="12" class="cell cell-empty" rx="2" ry="2"><title>2025-08-01: $0.00 (0 trades)</title></rect>
<rect x="500" y="95" width="12" height="12" class="cell cell-empty" rx="2" ry="2"><title>2025-08-02: $0.00 (0 trades)</title></rect>
<rect x="500" y="110" width="12" height="12" class="cell cell-empty" rx="2" ry="2"><title>2025-08-03: $0.00 (0 trades)</title></rect>
<rect x="515" y="20" width="12" height="12" class="cell cell-loss" rx="2" ry="2"><title>2025-08-04: $-106.51 (11 trades)</title></rect>
<rect x="515" y="35" width="12" height="12" class="cell cell-empty" rx="2" ry="2"><title>2025-08-05: $0.00 (0 trades)</title></rect>
<rect x="515" y="50" width="12" height="12" class="cell cell-loss" rx="2" ry="2"><title>2025-08-06: $-4.08 (4 trades)</title></rect>
<rect x="515" y="65" width="12" height="12" class="cell cell-profit" rx="2" ry="2"><title>2025-08-07: $80.14 (4 trades)</title></rect>
<rect x="515" y="80" width="12" height="12" class="cell cell-profit" rx="2" ry="2"><title>2025-08-08: $35.98 (3 trades)</title></rect>
<rect x="515" y="95" width="12" height="12" class="cell cell-empty" rx="2" ry="2"><title>2025-08-09: $0.00 (0 trades)</title></rect>
<rect x="515" y="110" width="12" height="12" class="cell cell-empty" rx="2" ry="2"><title>2025-08-10: $0.00 (0 trades)</title></rect>
<rect x="530" y="20" width="12" height="12" class="cell cell-loss" rx="2" ry="2"><title>2025-08-11: $-308.84 (9 trades)</title></rect>
<rect x="530" y="35" width="12" height="12" class="cell cell-loss" rx="2" ry="2"><title>2025-08-12: $-409.28 (10 trades)</title></rect>
<rect x="530" y="50" width="12" height="12" class="cell cell-loss" rx="2" ry="2"><title>2025-08-13: $-1.56 (1 trades)</title></rect>
<rect x="530" y="65" width="12" height="12" class="cell cell-profit" rx="2" ry="2"><title>2025-08-14: $207.04 (9 trades)</title></rect>
<rect x="530" y="80" width="12" height="12" class="cell cell-profit" rx="2" ry="2"><title>2025-08-15: $38.57 (21 trades)</title></rect>
<rect x="530" y="95" width="12" height="12" class="cell cell-empty" rx="2" ry="2"><title>2025-08-16: $0.00 (0 trades)</title></rect>
<rect x="530" y="110" width="12" height="12" class="cell cell-empty" rx="2" ry="2"><title>2025-08-17: $0.00 (0 trades)</title></rect>
<rect x="545" y="20" width="12" height="12" class="cell cell-empty" rx="2" ry="2"><title>2025-08-18: $0.00 (0 trades)</title></rect>
<rect x="545" y="35" width="12" height="12" class="cell cell-profit" rx="2" ry="2"><title>2025-08-19: $72.49 (7 trades)</title></rect>
<rect x="545" y="50" width="12" height="12" class="cell cell-loss" rx="2" ry="2"><title>2025-08-20: $-22.45 (47 trades)</title></rect>
<rect x="545" y="65" width="12" height="12" class="cell cell-loss" rx="2" ry="2"><title>2025-08-21: $-121.03 (5 trades)</title></rect>
<rect x="545" y="80" width="12" height="12" class="cell cell-profit" rx="2" ry="2"><title>2025-08-22: $312.13 (9 trades)</title></rect>
<rect x="545" y="95" width="12" height="12" class="cell cell-empty" rx="2" ry="2"><title>2025-08-23: $0.00 (0 trades)</title></rect>
<rect x="545" y="110" width="12" height="12" class="cell cell-empty" rx="2" ry="2"><title>2025-08-24: No data</title></rect>
<rect x="560" y="20" width="12" height="12" class="cell cell-profit" rx="2" ry="2"><title>2025-08-25: $137.10 (5 trades)</title></rect>
<rect x="560" y="35" width="12" height="12" class="cell cell-profit" rx="2" ry="2"><title>2025-08-26: $74.83 (14 trades)</title></rect>
<rect x="560" y="50" width="12" height="12" class="cell cell-profit" rx="2" ry="2"><title>2025-08-27: $16.13 (11 trades)</title></rect>
<rect x="560" y="65" width="12" height="12" class="cell cell-profit" rx="2" ry="2"><title>2025-08-28: $308.57 (28 trades)</title></rect>
<rect x="560" y="80" width="12" height="12" class="cell cell-profit" rx="2" ry="2"><title>2025-08-29: $17.62 (11 trades)</title></rect>
<rect x="560" y="95" width="12" height="12" class="cell cell-empty" rx="2" ry="2"><title>2025-08-30: $0.00 (0 trades)</title></rect>
<rect x="560" y="110" width="12" height="12" class="cell cell-empty" rx="2" ry="2"><title>2025-08-31: $0.00 (0 trades)</title></rect>
<rect x="575" y="20" width="12" height="12" class="cell cell-empty" rx="2" ry="2"><title>2025-09-01: $0.00 (0 trades)</title></rect>
<rect x="575" y="35" width="12" height="12" class="cell cell-profit" rx="2" ry="2"><title>2025-09-02: $8.71 (15 trades)</title></rect>
<rect x="575" y="50" width="12" height="12" class="cell cell-profit" rx="2" ry="2"><title>2025-09-03: $141.73 (51 trades)</title></rect>
<rect x="575" y="65" width="12" height="12" class="cell cell-loss" rx="2" ry="2"><title>2025-09-04: $-195.30 (58 trades)</title></rect>
<rect x="575" y="80" width="12" height="12" class="cell cell-loss" rx="2" ry="2"><title>2025-09-05: $-42.76 (20 trades)</title></rect>
<rect x="575" y="95" width="12" height="12" class="cell cell-empty" rx="2" ry="2"><title>2025-09-06: $0.00 (0 trades)</title></rect>
<rect x="575" y="110" width="12" height="12" class="cell cell-empty" rx="2" ry="2"><title>2025-09-07: $0.00 (0 trades)</title></rect>
<rect x="590" y="20" width="12" height="12" class="cell cell-profit" rx="2" ry="2"><title>2025-09-08: $27.51 (7 trades)</title></rect>
<rect x="590" y="35" width="12" height="12" class="cell cell-profit" rx="2" ry="2"><title>2025-09-09: $137.56 (23 trades)</title></rect>
<rect x="590" y="50" width="12" height="12" class="cell cell-empty" rx="2" ry="2"><title>2025-09-10: $0.00 (0 trades)</title></rect>
<rect x="590" y="65" width="12" height="12" class="cell cell-empty" rx="2" ry="2"><title>2025-09-11: $0.00 (0 trades)</title></rect>
<rect x="590" y="80" width="12" height="12" class="cell cell-empty" rx="2" ry="2"><title>2025-09-12: $0.00 (0 trades)</title></rect>
<rect x="590" y="95" width="12" height="12" class="cell cell-empty" rx="2" ry="2"><title>2025-09-13: No data</title></rect>
<rect x="590" y="110" width="12" height="12" class="cell cell-empty" rx="2" ry="2"><title>2025-09-14: No data</title></rect>
<rect x="605" y="20" width="12" height="12" class="cell cell-empty" rx="2" ry="2"><title>2025-09-15: No data</title></rect>
<rect x="605" y="35" width="12" height="12" class="cell cell-empty" rx="2" ry="2"><title>2025-09-16: No data</title></rect>
<rect x="605" y="50" width="12" height="12" class="cell cell-empty" rx="2" ry="2"><title>2025-09-17: No data</title></rect>
<rect x="605" y="65" width="12" height="12" class="cell cell-empty" rx="2" ry="2"><title>2025-09-18: No data</title></rect>
<rect x="605" y="80" width="12" height="12" class="cell cell-empty" rx="2" ry="2"><title>2025-09-19: No data</title></rect>
<rect x="605" y="95" width="12" height="12" class="cell cell-empty" rx="2" ry="2"><title>2025-09-20: No data</title></rect>
<rect x="605" y="110" width="12" height="12" class="cell cell-empty" rx="2" ry="2"><title>2025-09-21: No data</title></rect>
<rect x="620" y="20" width="12" height="12" class="cell cell-empty" rx="2" ry="2"><title>2025-09-22: No data</title></rect>
<rect x="620" y="35" width="12" height="12" class="cell cell-empty" rx="2" ry="2"><title>2025-09-23: No data</title></rect>
<rect x="620" y="50" width="12" height="12" class="cell cell-empty" rx="2" ry="2"><title>2025-09-24: No data</title></rect>
<rect x="620" y="65" width="12" height="12" class="cell cell-empty" rx="2" ry="2"><title>2025-09-25: No data</title></rect>
<rect x="620" y="80" width="12" height="12" class="cell cell-empty" rx="2" ry="2"><title>2025-09-26: No data</title></rect>
<rect x="620" y="95" width="12" height="12" class="cell cell-empty" rx="2" ry="2"><title>2025-09-27: No data</title></rect>
<rect x="620" y="110" width="12" height="12" class="cell cell-empty" rx="2" ry="2"><title>2025-09-28: No data</title></rect>
<rect x="635" y="20" width="12" height="12" class="cell cell-empty" rx="2" ry="2"><title>2025-09-29: No data</title></rect>
<rect x="635" y="35" width="12" height="12" class="cell cell-empty" rx="2" ry="2"><title>2025-09-30: No data</title></rect>
<rect x="635" y="50" width="12" height="12" class="cell cell-empty" rx="2" ry="2"><title>2025-10-01: No data</title></rect>
<rect x="635" y="65" width="12" height="12" class="cell cell-empty" rx="2" ry="2"><title>2025-10-02: No data</title></rect>
<rect x="635" y="80" width="12" height="12" class="cell cell-empty" rx="2" ry="2"><title>2025-10-03: No data</title></rect>
<rect x="635" y="95" width="12" height="12" class="cell cell-empty" rx="2" ry="2"><title>2025-10-04: No data</title></rect>
<rect x="635" y="110" width="12" height="12" class="cell cell-empty" rx="2" ry="2"><title>2025-10-05: No data</title></rect>
<rect x="650" y="20" width="12" height="12" class="cell cell-empty" rx="2" ry="2"><title>2025-10-06: No data</title></rect>
<rect x="650" y="35" width="12" height="12" class="cell cell-empty" rx="2" ry="2"><title>2025-10-07: No data</title></rect>
<rect x="650" y="50" width="12" height="12" class="cell cell-empty" rx="2" ry="2"><title>2025-10-08: No data</title></rect>
<rect x="650" y="65" width="12" height="12" class="cell cell-empty" rx="2" ry="2"><title>2025-10-09: No data</title></rect>
<rect x="650" y="80" width="12" height="12" class="cell cell-empty" rx="2" ry="2"><title>2025-10-10: No data</title></rect>
<rect x="650" y="95" width="12" height="12" class="cell cell-empty" rx="2" ry="2"><title>2025-10-11: No data</title></rect>
<rect x="650" y="110" width="12" height="12" class="cell cell-empty" rx="2" ry="2"><title>2025-10-12: No data</title></rect>
<rect x="665" y="20" width="12" height="12" class="cell cell-empty" rx="2" ry="2"><title>2025-10-13: No data</title></rect>
<rect x="665" y="35" width="12" height="12" class="cell cell-empty" rx="2" ry="2"><title>2025-10-14: No data</title></rect>
<rect x="665" y="50" width="12" height="12" class="cell cell-empty" rx="2" ry="2"><title>2025-10-15: No data</title></rect>
<rect x="665" y="65" width="12" height="12" class="cell cell-empty" rx="2" ry="2"><title>2025-10-16: No data</title></rect>
<rect x="665" y="80" width="12" height="12" class="cell cell-empty" rx="2" ry="2"><title>2025-10-17: No data</title></rect>
<rect x="665" y="95" width="12" height="12" class="cell cell-empty" rx="2" ry="2"><title>2025-10-18: No data</title></rect>
<rect x="665" y="110" width="12" height="12" class="cell cell-empty" rx="2" ry="2"><title>2025-10-19: No data</title></rect>
<rect x="680" y="20" width="12" height="12" class="cell cell-empty" rx="2" ry="2"><title>2025-10-20: No data</title></rect>
<rect x="680" y="35" width="12" height="12" class="cell cell-empty" rx="2" ry="2"><title>2025-10-21: No data</title></rect>
<rect x="680" y="50" width="12" height="12" class="cell cell-empty" rx="2" ry="2"><title>2025-10-22: No data</title></rect>
<rect x="680" y="65" width="12" height="12" class="cell cell-empty" rx="2" ry="2"><title>2025-10-23: No data</title></rect>
<rect x="680" y="80" width="12" height="12" class="cell cell-empty" rx="2" ry="2"><title>2025-10-24: No data</title></rect>
<rect x="680" y="95" width="12" height="12" class="cell cell-empty" rx="2" ry="2"><title>2025-10-25: No data</title></rect>
<rect x="680" y="110" width="12" height="12" class="cell cell-empty" rx="2" ry="2"><title>2025-10-26: No data</title></rect>
<rect x="695" y="20" width="12" height="12" class="cell cell-empty" rx="2" ry="2"><title>2025-10-27: No data</title></rect>
<rect x="695" y="35" width="12" height="12" class="cell cell-empty" rx="2" ry="2"><title>2025-10-28: No data</title></rect>
<rect x="695" y="50" width="12" height="12" class="cell cell-empty" rx="2" ry="2"><title>2025-10-29: No data</title></rect>
<rect x="695" y="65" width="12" height="12" class="cell cell-empty" rx="2" ry="2"><title>2025-10-30: No data</title></rect>
<rect x="695" y="80" width="12" height="12" class="cell cell-empty" rx="2" ry="2"><title>2025-10-31: No data</title></rect>
<rect x="695" y="95" width="12" height="12" class="cell cell-empty" rx="2" ry="2"><title>2025-11-01: No data</title></rect>
<rect x="695" y="110" width="12" height="12" class="cell cell-empty" rx="2" ry="2"><title>2025-11-02: No data</title></rect>
<rect x="710" y="20" width="12" height="12" class="cell cell-empty" rx="2" ry="2"><title>2025-11-03: No data</title></rect>
<rect x="710" y="35" width="12" height="12" class="cell cell-empty" rx="2" ry="2"><title>2025-11-04: No data</title></rect>
<rect x="710" y="50" width="12" height="12" class="cell cell-empty" rx="2" ry="2"><title>2025-11-05: No data</title></rect>
<rect x="710" y="65" width="12" height="12" class="cell cell-empty" rx="2" ry="2"><title>2025-11-06: No data</title></rect>
<rect x="710" y="80" width="12" height="12" class="cell cell-empty" rx="2" ry="2"><title>2025-11-07: No data</title></rect>
<rect x="710" y="95" width="12" height="12" class="cell cell-empty" rx="2" ry="2"><title>2025-11-08: No data</title></rect>
<rect x="710" y="110" width="12" height="12" class="cell cell-empty" rx="2" ry="2"><title>2025-11-09: No data</title></rect>
<rect x="725" y="20" width="12" height="12" class="cell cell-empty" rx="2" ry="2"><title>2025-11-10: No data</title></rect>
<rect x="725" y="35" width="12" height="12" class="cell cell-empty" rx="2" ry="2"><title>2025-11-11: No data</title></rect>
<rect x="725" y="50" width="12" height="12" class="cell cell-empty" rx="2" ry="2"><title>2025-11-12: No data</title></rect>
<rect x="725" y="65" width="12" height="12" class="cell cell-empty" rx="2" ry="2"><title>2025-11-13: No data</title></rect>
<rect x="725" y="80" width="12" height="12" class="cell cell-empty" rx="2" ry="2"><title>2025-11-14: No data</title></rect>
<rect x="725" y="95" width="12" height="12" class="cell cell-empty" rx="2" ry="2"><title>2025-11-15: No data</title></rect>
<rect x="725" y="110" width="12" height="12" class="cell cell-empty" rx="2" ry="2"><title>2025-11-16: No data</title></rect>
<rect x="740" y="20" width="12" height="12" class="cell cell-empty" rx="2" ry="2"><title>2025-11-17: No data</title></rect>
<rect x="740" y="35" width="12" height="12" class="cell cell-empty" rx="2" ry="2"><title>2025-11-18: No data</title></rect>
<rect x="740" y="50" width="12" height="12" class="cell cell-empty" rx="2" ry="2"><title>2025-11-19: No data</title></rect>
<rect x="740" y="65" width="12" height="12" class="cell cell-empty" rx="2" ry="2"><title>2025-11-20: No data</title></rect>
<rect x="740" y="80" width="12" height="12" class="cell cell-empty" rx="2" ry="2"><title>2025-11-21: No data</title></rect>
<rect x="740" y="95" width="12" height="12" class="cell cell-empty" rx="2" ry="2"><title>2025-11-22: No data</title></rect>
<rect x="740" y="110" width="12" height="12" class="cell cell-empty" rx="2" ry="2"><title>2025-11-23: No data</title></rect>
<rect x="755" y="20" width="12" height="12" class="cell cell-empty" rx="2" ry="2"><title>2025-11-24: No data</title></rect>
<rect x="755" y="35" width="12" height="12" class="cell cell-empty" rx="2" ry="2"><title>2025-11-25: No data</title></rect>
<rect x="755" y="50" width="12" height="12" class="cell cell-empty" rx="2" ry="2"><title>2025-11-26: No data</title></rect>
<rect x="755" y="65" width="12" height="12" class="cell cell-empty" rx="2" ry="2"><title>2025-11-27: No data</title></rect>
<rect x="755" y="80" width="12" height="12" class="cell cell-empty" rx="2" ry="2"><title>2025-11-28: No data</title></rect>
<rect x="755" y="95" width="12" height="12" class="cell cell-empty" rx="2" ry="2"><title>2025-11-29: No data</title></rect>
<rect x="755" y="110" width="12" height="12" class="cell cell-empty" rx="2" ry="2"><title>2025-11-30: No data</title></rect>
<rect x="770" y="20" width="12" height="12" class="cell cell-empty" rx="2" ry="2"><title>2025-12-01: No data</title></rect>
<rect x="770" y="35" width="12" height="12" class="cell cell-empty" rx="2" ry="2"><title>2025-12-02: No data</title></rect>
<rect x="770" y="50" width="12" height="12" class="cell cell-empty" rx="2" ry="2"><title>2025-12-03: No data</title></rect>
<rect x="770" y="65" width="12" height="12" class="cell cell-empty" rx="2" ry="2"><title>2025-12-04: No data</title></rect>
<rect x="770" y="80" width="12" height="12" class="cell cell-empty" rx="2" ry="2"><title>2025-12-05: No data</title></rect>
<rect x="770" y="95" width="12" height="12" class="cell cell-empty" rx="2" ry="2"><title>2025-12-06: No data</title></rect>
<rect x="770" y="110" width="12" height="12" class="cell cell-empty" rx="2" ry="2"><title>2025-12-07: No data</title></rect>
<rect x="785" y="20" width="12" height="12" class="cell cell-empty" rx="2" ry="2"><title>2025-12-08: No data</title></rect>
<rect x="785" y="35" width="12" height="12" class="cell cell-empty" rx="2" ry="2"><title>2025-12-09: No data</title></rect>
<rect x="785" y="50" width="12" height="12" class="cell cell-empty" rx="2" ry="2"><title>2025-12-10: No data</title></rect>
<rect x="785" y="65" width="12" height="12" class="cell cell-empty" rx="2" ry="2"><title>2025-12-11: No data</title></rect>
<rect x="785" y="80" width="12" height="12" class="cell cell-empty" rx="2" ry="2"><title>2025-12-12: No data</title></rect>
<rect x="785" y="95" width="12" height="12" class="cell cell-empty" rx="2" ry="2"><title>2025-12-13: No data</title></rect>
<rect x="785" y="110" width="12" height="12" class="cell cell-empty" rx="2" ry="2"><title>2025-12-14: No data</title></rect>
<rect x="800" y="20" width="12" height="12" class="cell cell-empty" rx="2" ry="2"><title>2025-12-15: No data</title></rect>
<rect x="800" y="35" width="12" height="12" class="cell cell-empty" rx="2" ry="2"><title>2025-12-16: No data</title></rect>
<rect x="800" y="50" width="12" height="12" class="cell cell-empty" rx="2" ry="2"><title>2025-12-17: No data</title></rect>
<rect x="800" y="65" width="12" height="12" class="cell cell-empty" rx="2" ry="2"><title>2025-12-18: No data</title></rect>
<rect x="800" y="80" width="12" height="12" class="cell cell-empty" rx="2" ry="2"><title>2025-12-19: No data</title></rect>
<rect x="800" y="95" width="12" height="12" class="cell cell-empty" rx="2" ry="2"><title>2025-12-20: No data</title></rect>
<rect x="800" y="110" width="12" height="12" class="cell cell-empty" rx="2" ry="2"><title>2025-12-21: No data</title></rect>
<rect x="815" y="20" width="12" height="12" class="cell cell-empty" rx="2" ry="2"><title>2025-12-22: No data</title></rect>
<rect x="815" y="35" width="12" height="12" class="cell cell-empty" rx="2" ry="2"><title>2025-12-23: No data</title></rect>
<rect x="815" y="50" width="12" height="12" class="cell cell-empty" rx="2" ry="2"><title>2025-12-24: No data</title></rect>
<rect x="815" y="65" width="12" height="12" class="cell cell-empty" rx="2" ry="2"><title>2025-12-25: No data</title></rect>
<rect x="815" y="80" width="12" height="12" class="cell cell-empty" rx="2" ry="2"><title>2025-12-26: No data</title></rect>
<rect x="815" y="95" width="12" height="12" class="cell cell-empty" rx="2" ry="2"><title>2025-12-27: No data</title></rect>
<rect x="815" y="110" width="12" height="12" class="cell cell-empty" rx="2" ry="2"><title>2025-12-28: No data</title></rect>
<rect x="830" y="20" width="12" height="12" class="cell cell-empty" rx="2" ry="2"><title>2025-12-29: No data</title></rect>
<rect x="830" y="35" width="12" height="12" class="cell cell-empty" rx="2" ry="2"><title>2025-12-30: No data</title></rect>
<rect x="830" y="50" width="12" height="12" class="cell cell-empty" rx="2" ry="2"><title>2025-12-31: No data</title></rect>
</svg>